<svg width="100" height="84" viewBox="0 0 100 84" fill="none" xmlns="http://www.w3.org/2000/svg">
<path d="M92.059 7.06999C82.2504 -2.18001 66.129 -1.57061 56.137 8.40979L51.5589 12.9879C50.6995 13.8473 49.2972 13.8473 48.43 12.9879L43.8597 8.40979C38.6214 3.17149 31.6687 0.511394 24.8477 0.511394C18.668 0.511394 12.5977 2.68329 7.94971 7.06999C2.93021 11.8005 0.109913 18.179 0.000513083 25.058C-0.101047 31.9291 2.53171 38.398 7.39111 43.277L46.0121 81.886C48.141 84.0266 51.8637 84.0266 54.0004 81.886L92.6214 43.277C97.4808 38.3981 100.102 31.925 99.9925 25.058C99.891 18.1791 97.0823 11.788 92.0628 7.06999H92.059ZM41.559 28.922C41.559 30.1525 40.5707 31.1408 39.3402 31.1408C38.1097 31.1408 37.1214 30.1525 37.1214 28.922V26.9415C37.1214 25.711 38.1214 24.7227 39.3402 24.7227C40.559 24.7227 41.559 25.711 41.559 26.9415V28.922ZM50.0004 43.301C45.7699 43.301 42.352 40.1213 42.352 36.2424C42.352 35.0119 43.3403 34.0236 44.5708 34.0236C45.8013 34.0236 46.7896 35.0119 46.7896 36.2424C46.7896 37.6916 48.2388 38.8713 50.0084 38.8713C51.7779 38.8713 53.2467 37.6916 53.2467 36.2424C53.2467 35.0119 54.235 34.0236 55.4655 34.0236C56.696 34.0236 57.6843 35.0119 57.6843 36.2424C57.6843 40.133 54.2429 43.301 50.0124 43.301H50.0004ZM62.8714 28.922C62.8714 30.1525 61.8831 31.1408 60.6526 31.1408C59.4221 31.1408 58.4338 30.1525 58.4338 28.922V26.9415C58.4338 25.711 59.4221 24.7227 60.6526 24.7227C61.8831 24.7227 62.8714 25.711 62.8714 26.9415V28.922Z" fill="#EAC5B4"/>
</svg>
